<?xml version="1.0" standalone="no"?>
<!DOCTYPE svg PUBLIC "-//W3C//DTD SVG 20010904//EN"
 "http://www.w3.org/TR/2001/REC-SVG-20010904/DTD/svg10.dtd">
<svg version="1.0" xmlns="http://www.w3.org/2000/svg"
 width="245.000000pt" height="300.000000pt" viewBox="0 0 245.000000 300.000000"
 preserveAspectRatio="xMidYMid meet">

<g transform="translate(0.000000,300.000000) scale(0.100000,-0.100000)"
fill="#000000" stroke="none">
<path d="M1025 2994 c-397 -39 -691 -123 -946 -270 l-80 -46 3 -842 c3 -824 4
-842 25 -917 99 -349 323 -546 878 -769 99 -39 213 -89 252 -110 40 -22 75
-35 77 -31 9 14 146 77 306 141 314 125 492 225 628 354 129 123 205 248 250
415 l26 96 4 830 3 831 -73 41 c-233 133 -508 222 -813 263 -83 11 -469 21
-540 14z m832 -404 c2 -10 -18 -25 -57 -43 -200 -93 -300 -340 -300 -744 0
-128 1 -133 21 -133 12 0 36 7 54 15 105 50 175 202 145 314 -14 54 -67 111
-103 111 -28 0 -44 25 -21 34 9 3 33 6 55 6 114 0 188 -93 176 -222 -13 -141
-118 -255 -275 -297 l-42 -12 6 -137 c18 -377 -80 -637 -290 -774 -176 -114
-420 -98 -530 33 -57 67 -71 108 -71 199 1 89 11 120 61 187 31 41 135 93 187
93 122 0 226 -92 227 -199 0 -90 -78 -171 -166 -174 -63 -3 -71 21 -15 44 99
42 106 180 10 231 -104 56 -224 -14 -251 -145 -16 -76 5 -146 63 -205 68 -68
118 -87 229 -87 87 0 100 3 148 30 104 57 181 171 223 330 19 70 21 110 23
320 l1 240 -45 13 c-151 45 -234 101 -285 193 -54 101 -46 264 20 397 91 181
313 339 545 387 90 19 254 15 257 -5z"/>
<path d="M1620 2554 c-220 -47 -417 -239 -474 -461 -21 -79 -20 -196 0 -256
22 -64 89 -130 159 -156 31 -12 58 -21 60 -21 3 0 5 42 5 93 0 355 110 610
340 789 l35 28 -30 -1 c-16 0 -59 -7 -95 -15z"/>
</g>
</svg>
